<svg width="18" height="18" viewBox="0 0 18 18" fill="none" xmlns="http://www.w3.org/2000/svg">
<g clip-path="url(#clip0_2_65)">
<path d="M13.5004 3.75009H16.5006M15.0005 2.25V5.25019M15.7392 9.36525C15.6689 10.6674 15.223 11.9214 14.4552 12.9755C13.6875 14.0297 12.6308 14.8389 11.413 15.3053C10.1951 15.7717 8.86829 15.8754 7.59279 15.6038C6.31729 15.3322 5.14776 14.697 4.22558 13.7749C3.3034 12.8528 2.66805 11.6834 2.39633 10.4079C2.12461 9.13243 2.22815 7.80556 2.69444 6.58768C3.16074 5.36981 3.96981 4.31307 5.02387 3.54521C6.07793 2.77734 7.33184 2.33123 8.63403 2.2608C8.9378 2.2443 9.09681 2.60582 8.93555 2.86309C8.39618 3.72606 8.16522 4.74636 8.28038 5.75748C8.39553 6.76861 8.84998 7.71085 9.56958 8.43045C10.2892 9.15004 11.2314 9.6045 12.2426 9.71965C13.2537 9.8348 14.274 9.60384 15.137 9.06448C15.395 8.90322 15.7557 9.06148 15.7392 9.36525Z" stroke="#E5C185" stroke-width="2" stroke-linecap="round"/>
</g>
<defs>
<clipPath id="clip0_2_65">
<rect width="18" height="18" fill="white"/>
</clipPath>
</defs>
</svg>
